WixMadeforDisplay_XBd.ufo
<glyph name="plus" format="2">
	<unicode hex="002B"/>
	<advance width="660"/>
	<outline>
		<contour>
			<point x="566" y="291" type="line"/>
			<point x="566" y="425" type="line"/>
			<point x="94" y="425" type="line"/>
			<point x="94" y="291" type="line"/>
		</contour>
		<contour>
			<point x="397" y="122" type="line"/>
			<point x="397" y="594" type="line"/>
			<point x="263" y="594" type="line"/>
			<point x="263" y="122" type="line"/>
		</contour>
	</outline>
	<guideline y="357"/>
</glyph>
<glyph name="comma" format="2">
	<unicode hex="002C"/>
	<advance width="288"/>
	<outline>
		<contour>
			<point x="135" y="-138" type="line"/>
			<point x="192" y="-83"/>
			<point x="244" y="6"/>
			<point x="244" y="69" type="curve" smooth="yes"/>
			<point x="244" y="137"/>
			<point x="202" y="183"/>
			<point x="141" y="183" type="curve" smooth="yes"/>
			<point x="86" y="183"/>
			<point x="44" y="141"/>
			<point x="44" y="86" type="curve" smooth="yes"/>
			<point x="44" y="33"/>
			<point x="88" y="-9"/>
			<point x="145" y="-9" type="curve"/>
			<point x="115" y="22" type="line"/>
			<point x="119" y="-19"/>
			<point x="85" y="-86"/>
			<point x="35" y="-138" type="curve"/>
		</contour>
	</outline>
	<guideline x="39"/>
	<guideline y="86"/>
</glyph>
<glyph name="less" format="2">
	<unicode hex="003C"/>
	<advance width="660"/>
	<outline>
		<contour>
			<point x="107" y="412" type="line"/>
			<point x="107" y="270" type="line"/>
			<point x="553" y="99" type="line"/>
			<point x="553" y="252" type="line"/>
		</contour>
		<contour>
			<point x="107" y="447" type="line"/>
			<point x="107" y="307" type="line"/>
			<point x="553" y="468" type="line"/>
			<point x="553" y="618" type="line"/>
		</contour>
	</outline>
	<guideline x="1052"/>
	<guideline y="357"/>
</glyph>
<glyph name="at" format="2">
	<unicode hex="0040"/>
	<advance width="1003"/>
	<outline>
		<contour>
			<point x="455" y="45" type="curve" smooth="yes"/>
			<point x="566" y="45"/>
			<point x="651" y="128"/>
			<point x="633" y="253" type="curve"/>
			<point x="595" y="264" type="line"/>
			<point x="591" y="206"/>
			<point x="558" y="155"/>
			<point x="492" y="155" type="curve" smooth="yes"/>
			<point x="432" y="155"/>
			<point x="393" y="200"/>
			<point x="393" y="261" type="curve" smooth="yes"/>
			<point x="393" y="323"/>
			<point x="429" y="368"/>
			<point x="487" y="368" type="curve" smooth="yes"/>
			<point x="541" y="368"/>
			<point x="578" y="330"/>
			<point x="578" y="265" type="curve"/>
			<point x="610" y="259" type="line"/>
			<point x="612" y="273"/>
			<point x="612" y="288"/>
			<point x="612" y="301" type="curve" smooth="yes"/>
			<point x="612" y="411"/>
			<point x="545" y="478"/>
			<point x="456" y="478" type="curve" smooth="yes"/>
			<point x="346" y="478"/>
			<point x="254" y="392"/>
			<point x="254" y="261" type="curve" smooth="yes"/>
			<point x="254" y="131"/>
			<point x="346" y="45"/>
		</contour>
		<contour>
			<point x="720" y="17" type="line"/>
			<point x="674" y="-31"/>
			<point x="596" y="-63"/>
			<point x="506" y="-63" type="curve" smooth="yes"/>
			<point x="316" y="-63"/>
			<point x="175" y="81"/>
			<point x="175" y="260" type="curve" smooth="yes"/>
			<point x="175" y="452"/>
			<point x="327" y="600"/>
			<point x="520" y="600" type="curve" smooth="yes"/>
			<point x="703" y="600"/>
			<point x="833" y="464"/>
			<point x="833" y="287" type="curve" smooth="yes"/>
			<point x="833" y="211"/>
			<point x="810" y="171"/>
			<point x="767" y="171" type="curve" smooth="yes"/>
			<point x="734" y="171"/>
			<point x="715" y="193"/>
			<point x="715" y="240" type="curve" smooth="yes"/>
			<point x="715" y="465" type="line"/>
			<point x="579" y="465" type="line"/>
			<point x="579" y="368" type="line"/>
			<point x="578" y="368" type="line"/>
			<point x="578" y="218" type="line" smooth="yes"/>
			<point x="578" y="112"/>
			<point x="646" y="45"/>
			<point x="752" y="45" type="curve" smooth="yes"/>
			<point x="892" y="45"/>
			<point x="974" y="137"/>
			<point x="974" y="294" type="curve" smooth="yes"/>
			<point x="974" y="532"/>
			<point x="781" y="731"/>
			<point x="521" y="731" type="curve" smooth="yes"/>
			<point x="245" y="731"/>
			<point x="34" y="529"/>
			<point x="34" y="262" type="curve" smooth="yes"/>
			<point x="34" y="4"/>
			<point x="236" y="-194"/>
			<point x="508" y="-194" type="curve" smooth="yes"/>
			<point x="644" y="-194"/>
			<point x="757" y="-149"/>
			<point x="811" y="-100" type="curve"/>
		</contour>
	</outline>
</glyph>
<glyph name="A" format="2">
	<unicode hex="0041"/>
	<advance width="799"/>
	<outline>
		<contour>
			<point x="622" y="130" type="line"/>
			<point x="622" y="273" type="line"/>
			<point x="176" y="273" type="line"/>
			<point x="176" y="130" type="line"/>
		</contour>
		<contour>
			<point x="774" y="0" type="line"/>
			<point x="495" y="715" type="line"/>
			<point x="304" y="715" type="line"/>
			<point x="25" y="0" type="line"/>
			<point x="204" y="0" type="line"/>
			<point x="419" y="589" type="line"/>
			<point x="375" y="589" type="line"/>
			<point x="589" y="0" type="line"/>
		</contour>
	</outline>
	<anchor name="bottom.UC" x="399" y="-50"/>
	<anchor name="ogonek.UC" x="581" y="-30"/>
	<anchor name="top.UC" x="399" y="750"/>
	<guideline x="580" y="0" angle="69.74"/>
	<guideline x="765" y="0" angle="69.74"/>
	<guideline x="16" y="0" angle="110.26"/>
	<guideline x="195" y="0" angle="110.26"/>
</glyph>
<glyph name="H" format="2">
	<unicode hex="0048"/>
	<advance width="760"/>
	<outline>
		<contour>
			<point x="526" y="0" type="line"/>
			<point x="698" y="0" type="line"/>
			<point x="698" y="715" type="line"/>
			<point x="526" y="715" type="line"/>
		</contour>
		<contour>
			<point x="234" y="0" type="line"/>
			<point x="234" y="715" type="line"/>
			<point x="62" y="715" type="line"/>
			<point x="62" y="0" type="line"/>
		</contour>
		<contour>
			<point x="224" y="293" type="line"/>
			<point x="536" y="293" type="line"/>
			<point x="536" y="437" type="line"/>
			<point x="224" y="437" type="line"/>
		</contour>
	</outline>
	<anchor name="bottom.UC" x="380" y="-50"/>
	<anchor name="top.UC" x="380" y="750"/>
</glyph>
<glyph name="K" format="2">
	<unicode hex="004B"/>
	<advance width="771"/>
	<outline>
		<contour>
			<point x="234" y="0" type="line"/>
			<point x="234" y="715" type="line"/>
			<point x="62" y="715" type="line"/>
			<point x="62" y="0" type="line"/>
		</contour>
		<contour>
			<point x="761" y="0" type="line"/>
			<point x="411" y="386" type="line"/>
			<point x="411" y="356" type="line"/>
			<point x="719" y="715" type="line"/>
			<point x="511" y="715" type="line"/>
			<point x="225" y="371" type="line"/>
			<point x="209" y="371" type="line"/>
			<point x="537" y="0" type="line"/>
		</contour>
	</outline>
	<anchor name="bottom.UC" x="381" y="-50"/>
	<anchor name="top.UC" x="381" y="750"/>
</glyph>
<glyph name="L" format="2">
	<unicode hex="004C"/>
	<advance width="584"/>
	<outline>
		<contour>
			<point x="554" y="0" type="line"/>
			<point x="554" y="147" type="line"/>
			<point x="234" y="147" type="line"/>
			<point x="234" y="715" type="line"/>
			<point x="62" y="715" type="line"/>
			<point x="62" y="0" type="line"/>
		</contour>
	</outline>
	<anchor name="bottom.UC" x="308" y="-50"/>
	<anchor name="top.UC" x="125" y="750"/>
	<anchor name="top_right" x="375" y="540"/>
</glyph>
<glyph name="N" format="2">
	<unicode hex="004E"/>
	<advance width="770"/>
	<outline>
		<contour>
			<point x="231" y="0" type="line"/>
			<point x="231" y="558" type="line"/>
			<point x="157" y="558" type="line"/>
			<point x="529" y="0" type="line"/>
			<point x="708" y="0" type="line"/>
			<point x="708" y="715" type="line"/>
			<point x="539" y="715" type="line"/>
			<point x="539" y="157" type="line"/>
			<point x="613" y="157" type="line"/>
			<point x="241" y="715" type="line"/>
			<point x="62" y="715" type="line"/>
			<point x="62" y="0" type="line"/>
		</contour>
	</outline>
	<anchor name="bottom.UC" x="385" y="-50"/>
	<anchor name="top.UC" x="385" y="750"/>
</glyph>
<glyph name="U" format="2">
	<unicode hex="0055"/>
	<advance width="752"/>
	<outline>
		<contour>
			<point x="694" y="715" type="line"/>
			<point x="523" y="715" type="line"/>
			<point x="523" y="282" type="line" smooth="yes"/>
			<point x="523" y="197"/>
			<point x="468" y="135"/>
			<point x="376" y="135" type="curve" smooth="yes"/>
			<point x="285" y="135"/>
			<point x="230" y="197"/>
			<point x="230" y="282" type="curve" smooth="yes"/>
			<point x="230" y="715" type="line"/>
			<point x="58" y="715" type="line"/>
			<point x="58" y="282" type="line" smooth="yes"/>
			<point x="58" y="94"/>
			<point x="178" y="-16"/>
			<point x="376" y="-16" type="curve" smooth="yes"/>
			<point x="575" y="-16"/>
			<point x="694" y="94"/>
			<point x="694" y="282" type="curve" smooth="yes"/>
		</contour>
	</outline>
	<anchor name="bottom.UC" x="376" y="-50"/>
	<anchor name="ogonek.UC.round" x="417" y="-30"/>
	<anchor name="top.UC" x="376" y="750"/>
	<anchor name="topright.UC" x="532" y="750"/>
</glyph>
<glyph name="W" format="2">
	<unicode hex="0057"/>
	<advance width="1084"/>
	<outline>
		<contour>
			<point x="857" y="0" type="line"/>
			<point x="1054" y="715" type="line"/>
			<point x="874" y="715" type="line"/>
			<point x="750" y="164" type="line"/>
			<point x="776" y="164" type="line"/>
			<point x="616" y="715" type="line"/>
			<point x="470" y="715" type="line"/>
			<point x="309" y="164" type="line"/>
			<point x="338" y="164" type="line"/>
			<point x="214" y="715" type="line"/>
			<point x="30" y="715" type="line"/>
			<point x="227" y="0" type="line"/>
			<point x="409" y="0" type="line"/>
			<point x="554" y="498" type="line"/>
			<point x="531" y="498" type="line"/>
			<point x="675" y="0" type="line"/>
		</contour>
	</outline>
	<anchor name="top.UC" x="542" y="750"/>
</glyph>
<glyph name="X" format="2">
	<unicode hex="0058"/>
	<advance width="758"/>
	<outline>
		<contour>
			<point x="213" y="0" type="line"/>
			<point x="393" y="269" type="line"/>
			<point x="365" y="269" type="line"/>
			<point x="544" y="0" type="line"/>
			<point x="748" y="0" type="line"/>
			<point x="472" y="391" type="line"/>
			<point x="472" y="350" type="line"/>
			<point x="722" y="715" type="line"/>
			<point x="520" y="715" type="line"/>
			<point x="366" y="474" type="line"/>
			<point x="392" y="474" type="line"/>
			<point x="238" y="715" type="line"/>
			<point x="34" y="715" type="line"/>
			<point x="287" y="350" type="line"/>
			<point x="287" y="391" type="line"/>
			<point x="10" y="0" type="line"/>
		</contour>
	</outline>
</glyph>
<glyph name="bracketright" format="2">
	<unicode hex="005D"/>
	<advance width="336"/>
	<outline>
		<contour>
			<point x="292" y="-129" type="line"/>
			<point x="292" y="731" type="line"/>
			<point x="30" y="731" type="line"/>
			<point x="30" y="602" type="line"/>
			<point x="128" y="602" type="line"/>
			<point x="128" y="0" type="line"/>
			<point x="30" y="0" type="line"/>
			<point x="30" y="-129" type="line"/>
		</contour>
	</outline>
</glyph>
<glyph name="a" format="2">
	<unicode hex="0061"/>
	<advance width="590"/>
	<outline>
		<contour>
			<point x="546" y="0" type="line"/>
			<point x="546" y="308" type="line" smooth="yes"/>
			<point x="546" y="449"/>
			<point x="439" y="526"/>
			<point x="281" y="526" type="curve" smooth="yes"/>
			<point x="192" y="526"/>
			<point x="106" y="495"/>
			<point x="53" y="446" type="curve"/>
			<point x="133" y="346" type="line"/>
			<point x="169" y="380"/>
			<point x="218" y="400"/>
			<point x="272" y="400" type="curve" smooth="yes"/>
			<point x="342" y="400"/>
			<point x="386" y="368"/>
			<point x="386" y="305" type="curve" smooth="yes"/>
			<point x="386" y="113" type="line"/>
			<point x="395" y="104" type="line"/>
			<point x="395" y="0" type="line"/>
		</contour>
		<contour>
			<point x="235" y="-16" type="curve" smooth="yes"/>
			<point x="359" y="-16"/>
			<point x="441" y="67"/>
			<point x="441" y="194" type="curve"/>
			<point x="398" y="212" type="line"/>
			<point x="392" y="151"/>
			<point x="341" y="106"/>
			<point x="279" y="106" type="curve" smooth="yes"/>
			<point x="236" y="106"/>
			<point x="206" y="128"/>
			<point x="206" y="161" type="curve" smooth="yes"/>
			<point x="206" y="196"/>
			<point x="242" y="219"/>
			<point x="302" y="219" type="curve" smooth="yes"/>
			<point x="400" y="219" type="line"/>
			<point x="400" y="321" type="line"/>
			<point x="292" y="321" type="line" smooth="yes"/>
			<point x="133" y="321"/>
			<point x="35" y="257"/>
			<point x="35" y="154" type="curve" smooth="yes"/>
			<point x="35" y="52"/>
			<point x="116" y="-16"/>
		</contour>
	</outline>
	<anchor name="bottom.LC" x="294" y="-50"/>
	<anchor name="ogonek.LC" x="401" y="-30"/>
	<anchor name="top.LC" x="294" y="544"/>
</glyph>
<glyph name="g" format="2">
	<unicode hex="0067"/>
	<advance width="663"/>
	<outline>
		<contour>
			<point x="612" y="74" type="curve"/>
			<point x="612" y="510" type="line"/>
			<point x="444" y="510" type="line"/>
			<point x="444" y="349" type="line"/>
			<point x="479" y="349" type="line"/>
			<point x="468" y="451"/>
			<point x="402" y="526"/>
			<point x="287" y="526" type="curve" smooth="yes"/>
			<point x="151" y="526"/>
			<point x="35" y="418"/>
			<point x="35" y="261" type="curve" smooth="yes"/>
			<point x="35" y="104"/>
			<point x="151" y="0"/>
			<point x="286" y="0" type="curve" smooth="yes"/>
			<point x="416" y="0"/>
			<point x="486" y="93"/>
			<point x="486" y="208" type="curve"/>
			<point x="448" y="224" type="line"/>
			<point x="438" y="172"/>
			<point x="390" y="138"/>
			<point x="333" y="138" type="curve" smooth="yes"/>
			<point x="258" y="138"/>
			<point x="209" y="190"/>
			<point x="209" y="262" type="curve" smooth="yes"/>
			<point x="209" y="332"/>
			<point x="254" y="388"/>
			<point x="327" y="388" type="curve" smooth="yes"/>
			<point x="395" y="388"/>
			<point x="443" y="340"/>
			<point x="443" y="259" type="curve" smooth="yes"/>
			<point x="443" y="63" type="line" smooth="yes"/>
			<point x="443" y="-27"/>
			<point x="387" y="-74"/>
			<point x="290" y="-74" type="curve" smooth="yes"/>
			<point x="233" y="-74"/>
			<point x="183" y="-55"/>
			<point x="141" y="-19" type="curve"/>
			<point x="56" y="-132" type="line"/>
			<point x="113" y="-181"/>
			<point x="205" y="-210"/>
			<point x="301" y="-210" type="curve" smooth="yes"/>
			<point x="487" y="-210"/>
			<point x="612" y="-102"/>
		</contour>
	</outline>
	<anchor name="top.LC" x="326" y="544"/>
</glyph>
<glyph name="o" format="2">
	<unicode hex="006F"/>
	<advance width="650"/>
	<outline>
		<contour>
			<point x="325" y="-16" type="curve" smooth="yes"/>
			<point x="497" y="-16"/>
			<point x="615" y="96"/>
			<point x="615" y="255" type="curve" smooth="yes"/>
			<point x="615" y="414"/>
			<point x="497" y="526"/>
			<point x="325" y="526" type="curve" smooth="yes"/>
			<point x="153" y="526"/>
			<point x="35" y="414"/>
			<point x="35" y="255" type="curve" smooth="yes"/>
			<point x="35" y="96"/>
			<point x="153" y="-16"/>
		</contour>
		<contour>
			<point x="325" y="122" type="curve" smooth="yes"/>
			<point x="256" y="122"/>
			<point x="209" y="177"/>
			<point x="209" y="255" type="curve" smooth="yes"/>
			<point x="209" y="333"/>
			<point x="256" y="388"/>
			<point x="325" y="388" type="curve" smooth="yes"/>
			<point x="394" y="388"/>
			<point x="441" y="333"/>
			<point x="441" y="255" type="curve" smooth="yes"/>
			<point x="441" y="177"/>
			<point x="394" y="122"/>
		</contour>
	</outline>
	<anchor name="bottom.LC" x="325" y="-50"/>
	<anchor name="top.LC" x="325" y="544"/>
	<anchor name="topright.LC" x="433" y="493"/>
</glyph>
<glyph name="q" format="2">
	<unicode hex="0071"/>
	<advance width="663"/>
	<outline>
		<contour>
			<point x="612" y="-194" type="line"/>
			<point x="612" y="510" type="line"/>
			<point x="444" y="510" type="line"/>
			<point x="444" y="349" type="line"/>
			<point x="479" y="349" type="line"/>
			<point x="468" y="451"/>
			<point x="402" y="526"/>
			<point x="287" y="526" type="curve" smooth="yes"/>
			<point x="151" y="526"/>
			<point x="35" y="418"/>
			<point x="35" y="255" type="curve" smooth="yes"/>
			<point x="35" y="92"/>
			<point x="151" y="-16"/>
			<point x="286" y="-16" type="curve" smooth="yes"/>
			<point x="416" y="-16"/>
			<point x="486" y="77"/>
			<point x="486" y="192" type="curve"/>
			<point x="448" y="208" type="line"/>
			<point x="438" y="156"/>
			<point x="390" y="122"/>
			<point x="333" y="122" type="curve" smooth="yes"/>
			<point x="258" y="122"/>
			<point x="209" y="178"/>
			<point x="209" y="255" type="curve" smooth="yes"/>
			<point x="209" y="332"/>
			<point x="254" y="388"/>
			<point x="327" y="388" type="curve" smooth="yes"/>
			<point x="395" y="388"/>
			<point x="443" y="340"/>
			<point x="443" y="259" type="curve" smooth="yes"/>
			<point x="443" y="-194" type="line"/>
		</contour>
	</outline>
</glyph>
<glyph name="t" format="2">
	<unicode hex="0074"/>
	<advance width="438"/>
	<outline>
		<contour>
			<point x="401" y="0" type="line"/>
			<point x="401" y="136" type="line"/>
			<point x="333" y="136" type="line" smooth="yes"/>
			<point x="296" y="136"/>
			<point x="283" y="149"/>
			<point x="283" y="188" type="curve" smooth="yes"/>
			<point x="283" y="636" type="line"/>
			<point x="114" y="636" type="line"/>
			<point x="114" y="155" type="line" smooth="yes"/>
			<point x="114" y="50"/>
			<point x="164" y="0"/>
			<point x="269" y="0" type="curve" smooth="yes"/>
		</contour>
		<contour>
			<point x="396" y="376" type="line"/>
			<point x="396" y="510" type="line"/>
			<point x="35" y="510" type="line"/>
			<point x="35" y="376" type="line"/>
		</contour>
	</outline>
	<anchor name="bottom.LC" x="277" y="-50"/>
	<anchor name="top_right.LC.short" x="338" y="540"/>
</glyph>
<glyph name="x" format="2">
	<unicode hex="0078"/>
	<advance width="614"/>
	<outline>
		<contour>
			<point x="199" y="0" type="line"/>
			<point x="307" y="165" type="line"/>
			<point x="415" y="0" type="line"/>
			<point x="604" y="0" type="line"/>
			<point x="414" y="265" type="line"/>
			<point x="591" y="510" type="line"/>
			<point x="402" y="510" type="line"/>
			<point x="307" y="364" type="line"/>
			<point x="213" y="510" type="line"/>
			<point x="25" y="510" type="line"/>
			<point x="201" y="265" type="line"/>
			<point x="10" y="0" type="line"/>
		</contour>
	</outline>
</glyph>
<glyph name="exclamdown" format="2">
	<unicode hex="00A1"/>
	<advance width="286"/>
	<outline>
		<contour>
			<point x="43" y="414" type="curve" smooth="yes"/>
			<point x="43" y="359"/>
			<point x="87" y="317"/>
			<point x="143" y="317" type="curve" smooth="yes"/>
			<point x="199" y="317"/>
			<point x="243" y="359"/>
			<point x="243" y="414" type="curve" smooth="yes"/>
			<point x="243" y="468"/>
			<point x="199" y="510"/>
			<point x="143" y="510" type="curve" smooth="yes"/>
			<point x="87" y="510"/>
			<point x="43" y="468"/>
		</contour>
		<contour>
			<point x="105" y="264" type="line"/>
			<point x="95" y="208"/>
			<point x="49" y="-110"/>
			<point x="49" y="-143" type="curve" smooth="yes"/>
			<point x="49" y="-194"/>
			<point x="91" y="-231"/>
			<point x="143" y="-231" type="curve" smooth="yes"/>
			<point x="195" y="-231"/>
			<point x="237" y="-194"/>
			<point x="237" y="-143" type="curve" smooth="yes"/>
			<point x="237" y="-110"/>
			<point x="191" y="208"/>
			<point x="181" y="264" type="curve"/>
		</contour>
	</outline>
</glyph>
<glyph name="currency" format="2">
	<unicode hex="00A4"/>
	<advance width="558"/>
	<outline>
		<contour>
			<point x="279" y="276" type="curve" smooth="yes"/>
			<point x="227" y="276"/>
			<point x="187" y="319"/>
			<point x="187" y="375" type="curve" smooth="yes"/>
			<point x="187" y="431"/>
			<point x="227" y="474"/>
			<point x="279" y="474" type="curve" smooth="yes"/>
			<point x="331" y="474"/>
			<point x="371" y="431"/>
			<point x="371" y="375" type="curve" smooth="yes"/>
			<point x="371" y="319"/>
			<point x="331" y="276"/>
		</contour>
		<contour>
			<point x="279" y="159" type="curve" smooth="yes"/>
			<point x="318" y="159"/>
			<point x="355" y="169"/>
			<point x="387" y="186" type="curve"/>
			<point x="463" y="110" type="line"/>
			<point x="533" y="180" type="line"/>
			<point x="461" y="252" type="line"/>
			<point x="486" y="287"/>
			<point x="501" y="330"/>
			<point x="501" y="375" type="curve" smooth="yes"/>
			<point x="501" y="420"/>
			<point x="486" y="463"/>
			<point x="461" y="498" type="curve"/>
			<point x="533" y="570" type="line"/>
			<point x="463" y="640" type="line"/>
			<point x="387" y="564" type="line"/>
			<point x="355" y="581"/>
			<point x="318" y="591"/>
			<point x="279" y="591" type="curve" smooth="yes"/>
			<point x="240" y="591"/>
			<point x="203" y="581"/>
			<point x="171" y="564" type="curve"/>
			<point x="95" y="640" type="line"/>
			<point x="25" y="570" type="line"/>
			<point x="97" y="498" type="line"/>
			<point x="72" y="463"/>
			<point x="57" y="420"/>
			<point x="57" y="375" type="curve" smooth="yes"/>
			<point x="57" y="330"/>
			<point x="72" y="287"/>
			<point x="97" y="252" type="curve"/>
			<point x="25" y="180" type="line"/>
			<point x="95" y="110" type="line"/>
			<point x="171" y="186" type="line"/>
			<point x="203" y="169"/>
			<point x="240" y="159"/>
		</contour>
	</outline>
</glyph>
<glyph name="yen" format="2">
	<unicode hex="00A5"/>
	<advance width="660"/>
	<outline>
		<contour>
			<point x="411" y="0" type="line"/>
			<point x="411" y="302" type="line"/>
			<point x="643" y="715" type="line"/>
			<point x="465" y="715" type="line"/>
			<point x="320" y="431" type="line"/>
			<point x="341" y="431" type="line"/>
			<point x="197" y="715" type="line"/>
			<point x="18" y="715" type="line"/>
			<point x="249" y="303" type="line"/>
			<point x="249" y="0" type="line"/>
		</contour>
		<contour>
			<point x="582" y="137" type="line"/>
			<point x="582" y="245" type="line"/>
			<point x="78" y="245" type="line"/>
			<point x="78" y="137" type="line"/>
		</contour>
		<contour>
			<point x="582" y="289" type="line"/>
			<point x="582" y="397" type="line"/>
			<point x="78" y="397" type="line"/>
			<point x="78" y="289" type="line"/>
		</contour>
	</outline>
</glyph>
<glyph name="section" format="2">
	<unicode hex="00A7"/>
	<advance width="565"/>
	<outline>
		<contour>
			<point x="533" y="322" type="curve" smooth="yes"/>
			<point x="533" y="421"/>
			<point x="447" y="472"/>
			<point x="308" y="495" type="curve" smooth="yes"/>
			<point x="219" y="510"/>
			<point x="201" y="530"/>
			<point x="201" y="558" type="curve" smooth="yes"/>
			<point x="201" y="596"/>
			<point x="233" y="617"/>
			<point x="285" y="617" type="curve" smooth="yes"/>
			<point x="339" y="617"/>
			<point x="398" y="584"/>
			<point x="430" y="544" type="curve"/>
			<point x="511" y="634" type="line"/>
			<point x="463" y="687"/>
			<point x="381" y="731"/>
			<point x="284" y="731" type="curve" smooth="yes"/>
			<point x="162" y="731"/>
			<point x="63" y="655"/>
			<point x="63" y="549" type="curve" smooth="yes"/>
			<point x="63" y="495"/>
			<point x="86" y="450"/>
			<point x="130" y="420" type="curve"/>
			<point x="77" y="389"/>
			<point x="41" y="342"/>
			<point x="41" y="280" type="curve" smooth="yes"/>
			<point x="41" y="180"/>
			<point x="130" y="129"/>
			<point x="269" y="106" type="curve" smooth="yes"/>
			<point x="358" y="91"/>
			<point x="378" y="70"/>
			<point x="378" y="43" type="curve" smooth="yes"/>
			<point x="378" y="7"/>
			<point x="349" y="-13"/>
			<point x="286" y="-13" type="curve" smooth="yes"/>
			<point x="226" y="-13"/>
			<point x="156" y="19"/>
			<point x="123" y="59" type="curve"/>
			<point x="42" y="-30" type="line"/>
			<point x="91" y="-84"/>
			<point x="180" y="-128"/>
			<point x="283" y="-128" type="curve" smooth="yes"/>
			<point x="413" y="-128"/>
			<point x="516" y="-60"/>
			<point x="516" y="52" type="curve" smooth="yes"/>
			<point x="516" y="106"/>
			<point x="488" y="151"/>
			<point x="444" y="181" type="curve"/>
			<point x="497" y="212"/>
			<point x="533" y="259"/>
		</contour>
		<contour>
			<point x="395" y="293" type="curve" smooth="yes"/>
			<point x="395" y="260"/>
			<point x="365" y="235"/>
			<point x="327" y="225" type="curve"/>
			<point x="305" y="229" type="line" smooth="yes"/>
			<point x="211" y="245"/>
			<point x="179" y="265"/>
			<point x="179" y="308" type="curve" smooth="yes"/>
			<point x="179" y="341"/>
			<point x="209" y="366"/>
			<point x="247" y="376" type="curve"/>
			<point x="269" y="372" type="line" smooth="yes"/>
			<point x="364" y="355"/>
			<point x="395" y="335"/>
		</contour>
	</outline>
</glyph>
<glyph name="copyright" format="2">
	<unicode hex="00A9"/>
	<advance width="852"/>
	<outline>
		<contour>
			<point x="532" y="299" type="line"/>
			<point x="509" y="268"/>
			<point x="475" y="249"/>
			<point x="438" y="249" type="curve" smooth="yes"/>
			<point x="378" y="249"/>
			<point x="336" y="294"/>
			<point x="336" y="359" type="curve" smooth="yes"/>
			<point x="336" y="423"/>
			<point x="378" y="468"/>
			<point x="438" y="468" type="curve" smooth="yes"/>
			<point x="475" y="468"/>
			<point x="509" y="449"/>
			<point x="532" y="419" type="curve"/>
			<point x="607" y="496" type="line"/>
			<point x="571" y="540"/>
			<point x="510" y="572"/>
			<point x="432" y="572" type="curve" smooth="yes"/>
			<point x="302" y="572"/>
			<point x="207" y="484"/>
			<point x="207" y="359" type="curve" smooth="yes"/>
			<point x="207" y="232"/>
			<point x="300" y="145"/>
			<point x="430" y="145" type="curve" smooth="yes"/>
			<point x="508" y="145"/>
			<point x="571" y="176"/>
			<point x="607" y="220" type="curve"/>
		</contour>
		<contour>
			<point x="426" y="-26" type="curve" smooth="yes"/>
			<point x="640" y="-26"/>
			<point x="807" y="143"/>
			<point x="807" y="358" type="curve" smooth="yes"/>
			<point x="807" y="573"/>
			<point x="640" y="742"/>
			<point x="426" y="742" type="curve" smooth="yes"/>
			<point x="212" y="742"/>
			<point x="45" y="573"/>
			<point x="45" y="358" type="curve" smooth="yes"/>
			<point x="45" y="143"/>
			<point x="212" y="-26"/>
		</contour>
		<contour>
			<point x="426" y="67" type="curve" smooth="yes"/>
			<point x="265" y="67"/>
			<point x="139" y="195"/>
			<point x="139" y="358" type="curve" smooth="yes"/>
			<point x="139" y="521"/>
			<point x="265" y="649"/>
			<point x="426" y="649" type="curve" smooth="yes"/>
			<point x="587" y="649"/>
			<point x="713" y="521"/>
			<point x="713" y="358" type="curve" smooth="yes"/>
			<point x="713" y="195"/>
			<point x="587" y="67"/>
		</contour>
	</outline>
</glyph>
<glyph name="registered" format="2">
	<unicode hex="00AE"/>
	<advance width="530"/>
	<outline>
		<contour>
			<point x="233" y="385" type="line"/>
			<point x="233" y="553" type="line"/>
			<point x="273" y="553" type="line" smooth="yes"/>
			<point x="290" y="553"/>
			<point x="302" y="542"/>
			<point x="302" y="526" type="curve" smooth="yes"/>
			<point x="302" y="510"/>
			<point x="290" y="499"/>
			<point x="273" y="499" type="curve" smooth="yes"/>
			<point x="230" y="499" type="line"/>
			<point x="230" y="447" type="line"/>
			<point x="273" y="447" type="line" smooth="yes"/>
			<point x="328" y="447"/>
			<point x="364" y="479"/>
			<point x="364" y="526" type="curve" smooth="yes"/>
			<point x="364" y="573"/>
			<point x="328" y="605"/>
			<point x="273" y="605" type="curve" smooth="yes"/>
			<point x="173" y="605" type="line"/>
			<point x="173" y="385" type="line"/>
		</contour>
		<contour>
			<point x="379" y="385" type="line"/>
			<point x="302" y="469" type="line"/>
			<point x="233" y="469" type="line"/>
			<point x="307" y="385" type="line"/>
		</contour>
		<contour>
			<point x="265" y="243" type="curve" smooth="yes"/>
			<point x="397" y="243"/>
			<point x="505" y="353"/>
			<point x="505" y="488" type="curve" smooth="yes"/>
			<point x="505" y="623"/>
			<point x="397" y="733"/>
			<point x="265" y="733" type="curve" smooth="yes"/>
			<point x="133" y="733"/>
			<point x="25" y="623"/>
			<point x="25" y="488" type="curve" smooth="yes"/>
			<point x="25" y="353"/>
			<point x="133" y="243"/>
		</contour>
		<contour>
			<point x="265" y="319" type="curve" smooth="yes"/>
			<point x="171" y="319"/>
			<point x="103" y="387"/>
			<point x="103" y="488" type="curve" smooth="yes"/>
			<point x="103" y="589"/>
			<point x="171" y="657"/>
			<point x="265" y="657" type="curve" smooth="yes"/>
			<point x="359" y="657"/>
			<point x="427" y="589"/>
			<point x="427" y="488" type="curve" smooth="yes"/>
			<point x="427" y="387"/>
			<point x="359" y="319"/>
		</contour>
	</outline>
	<guideline x="268"/>
	<guideline y="529"/>
</glyph>
<glyph name="degree" format="2">
	<unicode hex="00B0"/>
	<advance width="495"/>
	<outline>
		<contour>
			<point x="248" y="358" type="curve" smooth="yes"/>
			<point x="354" y="358"/>
			<point x="441" y="442"/>
			<point x="441" y="544" type="curve" smooth="yes"/>
			<point x="441" y="647"/>
			<point x="354" y="731"/>
			<point x="248" y="731" type="curve" smooth="yes"/>
			<point x="141" y="731"/>
			<point x="54" y="647"/>
			<point x="54" y="544" type="curve" smooth="yes"/>
			<point x="54" y="442"/>
			<point x="141" y="358"/>
		</contour>
		<contour>
			<point x="248" y="468" type="curve" smooth="yes"/>
			<point x="207" y="468"/>
			<point x="176" y="501"/>
			<point x="176" y="544" type="curve" smooth="yes"/>
			<point x="176" y="588"/>
			<point x="207" y="622"/>
			<point x="248" y="622" type="curve" smooth="yes"/>
			<point x="289" y="622"/>
			<point x="320" y="588"/>
			<point x="320" y="544" type="curve" smooth="yes"/>
			<point x="320" y="501"/>
			<point x="289" y="468"/>
		</contour>
	</outline>
</glyph>
<glyph name="AE" format="2">
	<unicode hex="00C6"/>
	<advance width="1102"/>
	<outline>
		<contour>
			<point x="619" y="715" type="line"/>
			<point x="459" y="715" type="line"/>
			<point x="15" y="0" type="line"/>
			<point x="200" y="0" type="line"/>
		</contour>
		<contour>
			<point x="618" y="130" type="line"/>
			<point x="618" y="273" type="line"/>
			<point x="245" y="273" type="line"/>
			<point x="245" y="130" type="line"/>
		</contour>
		<contour>
			<point x="1057" y="0" type="line"/>
			<point x="1057" y="143" type="line"/>
			<point x="707" y="143" type="line"/>
			<point x="707" y="572" type="line"/>
			<point x="1057" y="572" type="line"/>
			<point x="1057" y="715" type="line"/>
			<point x="535" y="715" type="line"/>
			<point x="535" y="0" type="line"/>
		</contour>
		<contour>
			<point x="1038" y="288" type="line"/>
			<point x="1038" y="431" type="line"/>
			<point x="697" y="431" type="line"/>
			<point x="697" y="288" type="line"/>
		</contour>
	</outline>
	<guideline y="572"/>
</glyph>
<glyph name="Eth" format="2">
	<unicode hex="00D0"/>
	<advance width="764"/>
	<outline>
		<contour>
			<point x="62" y="0" type="line"/>
			<point x="324" y="0" type="line" smooth="yes"/>
			<point x="562" y="0"/>
			<point x="718" y="148"/>
			<point x="718" y="358" type="curve" smooth="yes"/>
			<point x="718" y="567"/>
			<point x="562" y="715"/>
			<point x="324" y="715" type="curve" smooth="yes"/>
			<point x="62" y="715" type="line"/>
		</contour>
		<contour>
			<point x="234" y="143" type="line"/>
			<point x="234" y="572" type="line"/>
			<point x="324" y="572" type="line" smooth="yes"/>
			<point x="456" y="572"/>
			<point x="537" y="489"/>
			<point x="537" y="358" type="curve" smooth="yes"/>
			<point x="537" y="226"/>
			<point x="456" y="143"/>
			<point x="324" y="143" type="curve" smooth="yes"/>
		</contour>
		<contour>
			<point x="366" y="288" type="line"/>
			<point x="366" y="431" type="line"/>
			<point x="5" y="431" type="line"/>
			<point x="5" y="288" type="line"/>
		</contour>
	</outline>
</glyph>
<glyph name="ae" format="2">
	<unicode hex="00E6"/>
	<advance width="972"/>
	<outline>
		<contour>
			<point x="852" y="168" type="line"/>
			<point x="812" y="131"/>
			<point x="766" y="112"/>
			<point x="710" y="112" type="curve" smooth="yes"/>
			<point x="621" y="112"/>
			<point x="560" y="160"/>
			<point x="560" y="258" type="curve" smooth="yes"/>
			<point x="560" y="349"/>
			<point x="605" y="399"/>
			<point x="669" y="399" type="curve" smooth="yes"/>
			<point x="734" y="399"/>
			<point x="771" y="350"/>
			<point x="771" y="273" type="curve" smooth="yes"/>
			<point x="771" y="255" type="line"/>
			<point x="935" y="255" type="line"/>
			<point x="935" y="261" type="line" smooth="yes"/>
			<point x="935" y="418"/>
			<point x="824" y="526"/>
			<point x="676" y="526" type="curve" smooth="yes"/>
			<point x="519" y="526"/>
			<point x="401" y="416"/>
			<point x="401" y="254" type="curve" smooth="yes"/>
			<point x="401" y="93"/>
			<point x="519" y="-16"/>
			<point x="701" y="-16" type="curve" smooth="yes"/>
			<point x="795" y="-16"/>
			<point x="883" y="15"/>
			<point x="934" y="67" type="curve"/>
		</contour>
		<contour>
			<point x="935" y="211" type="line"/>
			<point x="935" y="260" type="line"/>
			<point x="918" y="309" type="line"/>
			<point x="492" y="309" type="line"/>
			<point x="492" y="211" type="line"/>
		</contour>
		<contour>
			<point x="516" y="270" type="line"/>
			<point x="516" y="306" type="line" smooth="yes"/>
			<point x="516" y="447"/>
			<point x="420" y="526"/>
			<point x="281" y="526" type="curve" smooth="yes"/>
			<point x="192" y="526"/>
			<point x="106" y="495"/>
			<point x="53" y="446" type="curve"/>
			<point x="133" y="346" type="line"/>
			<point x="169" y="380"/>
			<point x="218" y="400"/>
			<point x="272" y="400" type="curve" smooth="yes"/>
			<point x="342" y="400"/>
			<point x="386" y="368"/>
			<point x="386" y="305" type="curve" smooth="yes"/>
			<point x="386" y="270" type="line"/>
		</contour>
		<contour>
			<point x="249" y="-16" type="curve" smooth="yes"/>
			<point x="412" y="-16"/>
			<point x="512" y="69"/>
			<point x="533" y="192" type="curve"/>
			<point x="424" y="209" type="line"/>
			<point x="428" y="141"/>
			<point x="350" y="106"/>
			<point x="286" y="106" type="curve" smooth="yes"/>
			<point x="241" y="106"/>
			<point x="206" y="129"/>
			<point x="206" y="160" type="curve" smooth="yes"/>
			<point x="206" y="196"/>
			<point x="238" y="213"/>
			<point x="296" y="213" type="curve" smooth="yes"/>
			<point x="456" y="213" type="line"/>
			<point x="456" y="311" type="line"/>
			<point x="286" y="311" type="line" smooth="yes"/>
			<point x="128" y="311"/>
			<point x="35" y="255"/>
			<point x="35" y="149" type="curve" smooth="yes"/>
			<point x="35" y="51"/>
			<point x="123" y="-16"/>
		</contour>
	</outline>
	<guideline y="56"/>
</glyph>
<glyph name="eth" format="2">
	<unicode hex="00F0"/>
	<advance width="650"/>
	<outline>
		<contour>
			<point x="485" y="240" type="line"/>
			<point x="485" y="380"/>
			<point x="443" y="489"/>
			<point x="298" y="489" type="curve" smooth="yes"/>
			<point x="155" y="489"/>
			<point x="35" y="386"/>
			<point x="35" y="240" type="curve" smooth="yes"/>
			<point x="35" y="95"/>
			<point x="156" y="-16"/>
			<point x="325" y="-16" type="curve" smooth="yes"/>
			<point x="494" y="-16"/>
			<point x="615" y="92"/>
			<point x="615" y="290" type="curve" smooth="yes"/>
			<point x="615" y="506"/>
			<point x="490" y="686"/>
			<point x="273" y="783" type="curve"/>
			<point x="135" y="731" type="line"/>
			<point x="352" y="618"/>
			<point x="461" y="473"/>
			<point x="461" y="240" type="curve"/>
		</contour>
		<contour>
			<point x="325" y="122" type="curve" smooth="yes"/>
			<point x="257" y="122"/>
			<point x="209" y="174"/>
			<point x="209" y="240" type="curve" smooth="yes"/>
			<point x="209" y="310"/>
			<point x="257" y="358"/>
			<point x="325" y="358" type="curve" smooth="yes"/>
			<point x="393" y="358"/>
			<point x="441" y="310"/>
			<point x="441" y="240" type="curve" smooth="yes"/>
			<point x="441" y="174"/>
			<point x="393" y="122"/>
		</contour>
		<contour>
			<point x="565" y="631" type="line"/>
			<point x="524" y="742" type="line"/>
			<point x="168" y="609" type="line"/>
			<point x="209" y="497" type="line"/>
		</contour>
	</outline>
	<guideline x="0" y="682" angle="159.51"/>
</glyph>
<glyph name="thorn" format="2">
	<unicode hex="00FE"/>
	<advance width="663"/>
	<outline>
		<contour>
			<point x="220" y="-194" type="line"/>
			<point x="220" y="259" type="line" smooth="yes"/>
			<point x="220" y="340"/>
			<point x="268" y="388"/>
			<point x="336" y="388" type="curve" smooth="yes"/>
			<point x="409" y="388"/>
			<point x="454" y="332"/>
			<point x="454" y="255" type="curve" smooth="yes"/>
			<point x="454" y="178"/>
			<point x="405" y="122"/>
			<point x="330" y="122" type="curve" smooth="yes"/>
			<point x="273" y="122"/>
			<point x="225" y="156"/>
			<point x="215" y="208" type="curve"/>
			<point x="177" y="192" type="line"/>
			<point x="177" y="77"/>
			<point x="247" y="-16"/>
			<point x="377" y="-16" type="curve" smooth="yes"/>
			<point x="512" y="-16"/>
			<point x="628" y="92"/>
			<point x="628" y="255" type="curve" smooth="yes"/>
			<point x="628" y="418"/>
			<point x="512" y="526"/>
			<point x="376" y="526" type="curve" smooth="yes"/>
			<point x="263" y="526"/>
			<point x="196" y="449"/>
			<point x="185" y="349" type="curve"/>
			<point x="220" y="349" type="line"/>
			<point x="220" y="720" type="line"/>
			<point x="51" y="720" type="line"/>
			<point x="51" y="-194" type="line"/>
		</contour>
	</outline>
</glyph>
<glyph name="kgreenlandic" format="2">
	<unicode hex="0138"/>
	<advance width="642"/>
	<outline>
		<contour>
			<point x="220" y="0" type="line"/>
			<point x="220" y="510" type="line"/>
			<point x="51" y="510" type="line"/>
			<point x="51" y="0" type="line"/>
		</contour>
		<contour>
			<point x="632" y="0" type="line"/>
			<point x="377" y="275" type="line"/>
			<point x="377" y="254" type="line"/>
			<point x="602" y="510" type="line"/>
			<point x="408" y="510" type="line"/>
			<point x="199" y="265" type="line"/>
			<point x="188" y="265" type="line"/>
			<point x="427" y="0" type="line"/>
		</contour>
	</outline>
</glyph>
<glyph name="OE" format="2">
	<unicode hex="0152"/>
	<advance width="1211"/>
	<outline>
		<contour>
			<point x="421" y="-16" type="curve" smooth="yes"/>
			<point x="633" y="-16"/>
			<point x="775" y="142"/>
			<point x="775" y="358" type="curve" smooth="yes"/>
			<point x="775" y="573"/>
			<point x="633" y="731"/>
			<point x="421" y="731" type="curve" smooth="yes"/>
			<point x="209" y="731"/>
			<point x="47" y="573"/>
			<point x="47" y="358" type="curve" smooth="yes"/>
			<point x="47" y="142"/>
			<point x="209" y="-16"/>
		</contour>
		<contour>
			<point x="436" y="135" type="curve" smooth="yes"/>
			<point x="313" y="135"/>
			<point x="228" y="228"/>
			<point x="228" y="358" type="curve" smooth="yes"/>
			<point x="228" y="487"/>
			<point x="313" y="580"/>
			<point x="436" y="580" type="curve" smooth="yes"/>
			<point x="559" y="580"/>
			<point x="644" y="487"/>
			<point x="644" y="358" type="curve" smooth="yes"/>
			<point x="644" y="228"/>
			<point x="559" y="135"/>
		</contour>
		<contour>
			<point x="1166" y="0" type="line"/>
			<point x="1166" y="143" type="line"/>
			<point x="816" y="143" type="line"/>
			<point x="816" y="572" type="line"/>
			<point x="1166" y="572" type="line"/>
			<point x="1166" y="715" type="line"/>
			<point x="644" y="715" type="line"/>
			<point x="644" y="0" type="line"/>
		</contour>
		<contour>
			<point x="1147" y="288" type="line"/>
			<point x="1147" y="431" type="line"/>
			<point x="806" y="431" type="line"/>
			<point x="806" y="288" type="line"/>
		</contour>
	</outline>
</glyph>
<glyph name="oe" format="2">
	<unicode hex="0153"/>
	<advance width="1027"/>
	<outline>
		<contour>
			<point x="313" y="-16" type="curve" smooth="yes"/>
			<point x="473" y="-16"/>
			<point x="575" y="96"/>
			<point x="575" y="255" type="curve" smooth="yes"/>
			<point x="575" y="414"/>
			<point x="473" y="526"/>
			<point x="313" y="526" type="curve" smooth="yes"/>
			<point x="153" y="526"/>
			<point x="35" y="414"/>
			<point x="35" y="255" type="curve" smooth="yes"/>
			<point x="35" y="96"/>
			<point x="153" y="-16"/>
		</contour>
		<contour>
			<point x="325" y="122" type="curve" smooth="yes"/>
			<point x="256" y="122"/>
			<point x="209" y="177"/>
			<point x="209" y="255" type="curve" smooth="yes"/>
			<point x="209" y="333"/>
			<point x="256" y="388"/>
			<point x="325" y="388" type="curve" smooth="yes"/>
			<point x="394" y="388"/>
			<point x="441" y="333"/>
			<point x="441" y="255" type="curve" smooth="yes"/>
			<point x="441" y="177"/>
			<point x="394" y="122"/>
		</contour>
		<contour>
			<point x="907" y="168" type="line"/>
			<point x="867" y="131"/>
			<point x="821" y="112"/>
			<point x="765" y="112" type="curve" smooth="yes"/>
			<point x="676" y="112"/>
			<point x="615" y="160"/>
			<point x="615" y="258" type="curve" smooth="yes"/>
			<point x="615" y="349"/>
			<point x="660" y="399"/>
			<point x="724" y="399" type="curve" smooth="yes"/>
			<point x="789" y="399"/>
			<point x="826" y="350"/>
			<point x="826" y="273" type="curve" smooth="yes"/>
			<point x="826" y="255" type="line"/>
			<point x="990" y="255" type="line"/>
			<point x="990" y="261" type="line" smooth="yes"/>
			<point x="990" y="418"/>
			<point x="879" y="526"/>
			<point x="731" y="526" type="curve" smooth="yes"/>
			<point x="580" y="526"/>
			<point x="466" y="416"/>
			<point x="466" y="254" type="curve" smooth="yes"/>
			<point x="466" y="93"/>
			<point x="580" y="-16"/>
			<point x="756" y="-16" type="curve" smooth="yes"/>
			<point x="850" y="-16"/>
			<point x="938" y="15"/>
			<point x="989" y="67" type="curve"/>
		</contour>
		<contour>
			<point x="990" y="206" type="line"/>
			<point x="990" y="260" type="line"/>
			<point x="973" y="304" type="line"/>
			<point x="547" y="304" type="line"/>
			<point x="547" y="206" type="line"/>
		</contour>
	</outline>
</glyph>
<glyph name="uhorn" format="2">
	<unicode hex="01B0"/>
	<advance width="699"/>
	<outline>
		<contour>
			<point x="394" y="208" type="line"/>
			<point x="385" y="157"/>
			<point x="342" y="122"/>
			<point x="291" y="122" type="curve" smooth="yes"/>
			<point x="245" y="122"/>
			<point x="215" y="150"/>
			<point x="215" y="206" type="curve" smooth="yes"/>
			<point x="215" y="510" type="line"/>
			<point x="46" y="510" type="line"/>
			<point x="46" y="189" type="line" smooth="yes"/>
			<point x="46" y="56"/>
			<point x="120" y="-16"/>
			<point x="237" y="-16" type="curve" smooth="yes"/>
			<point x="355" y="-16"/>
			<point x="428" y="66"/>
			<point x="428" y="192" type="curve"/>
		</contour>
		<contour>
			<point x="586" y="626" type="line"/>
			<point x="586" y="582" type="line" smooth="yes"/>
			<point x="586" y="533"/>
			<point x="562" y="510"/>
			<point x="515" y="510" type="curve" smooth="yes"/>
			<point x="389" y="510" type="line"/>
			<point x="389" y="124" type="line"/>
			<point x="390" y="96" type="line"/>
			<point x="390" y="0" type="line"/>
			<point x="558" y="0" type="line"/>
			<point x="558" y="462" type="line"/>
			<point x="520" y="414" type="line"/>
			<point x="648" y="418"/>
			<point x="714" y="473"/>
			<point x="714" y="585" type="curve" smooth="yes"/>
			<point x="714" y="626" type="line"/>
		</contour>
	</outline>
	<anchor name="bottom.LC" x="302" y="-50"/>
	<anchor name="top.LC" x="302" y="544"/>
</glyph>
<glyph name="circumflexcomb" format="2">
	<unicode hex="0302"/>
	<outline>
		<contour>
			<point x="217" y="587" type="line"/>
			<point x="93" y="761" type="line"/>
			<point x="-93" y="761" type="line"/>
			<point x="-217" y="587" type="line"/>
			<point x="-70" y="587" type="line"/>
			<point x="61" y="745" type="line"/>
			<point x="-64" y="745" type="line"/>
			<point x="67" y="587" type="line"/>
		</contour>
	</outline>
	<anchor name="_top.LC" x="0" y="544"/>
	<anchor name="top.LC" x="219" y="659"/>
</glyph>
<glyph name="Nje" format="2">
	<unicode hex="040A"/>
	<advance width="1137"/>
	<outline>
		<contour>
			<point x="524" y="0" type="line"/>
			<point x="840" y="0" type="line" smooth="yes"/>
			<point x="1002" y="0"/>
			<point x="1110" y="92"/>
			<point x="1110" y="225" type="curve" smooth="yes"/>
			<point x="1110" y="358"/>
			<point x="1003" y="445"/>
			<point x="840" y="445" type="curve" smooth="yes"/>
			<point x="605" y="445" type="line"/>
			<point x="605" y="302" type="line"/>
			<point x="841" y="302" type="line" smooth="yes"/>
			<point x="900" y="302"/>
			<point x="936" y="273"/>
			<point x="936" y="225" type="curve" smooth="yes"/>
			<point x="936" y="174"/>
			<point x="900" y="143"/>
			<point x="841" y="143" type="curve" smooth="yes"/>
			<point x="671" y="143" type="line"/>
			<point x="696" y="118" type="line"/>
			<point x="696" y="715" type="line"/>
			<point x="524" y="715" type="line"/>
		</contour>
		<contour>
			<point x="80" y="0" type="line"/>
			<point x="252" y="0" type="line"/>
			<point x="252" y="715" type="line"/>
			<point x="80" y="715" type="line"/>
		</contour>
		<contour>
			<point x="172" y="301" type="line"/>
			<point x="614" y="301" type="line"/>
			<point x="614" y="445" type="line"/>
			<point x="172" y="445" type="line"/>
		</contour>
	</outline>
	<anchor name="bottom.UC" x="398" y="-50"/>
	<anchor name="top.UC" x="398" y="750"/>
</glyph>
<glyph name="Tshe" format="2">
	<unicode hex="040B"/>
	<advance width="817"/>
	<outline>
		<contour>
			<point x="598" y="0" type="line"/>
			<point x="770" y="0" type="line"/>
			<point x="770" y="223" type="line" smooth="yes"/>
			<point x="770" y="379"/>
			<point x="676" y="461"/>
			<point x="514" y="461" type="curve" smooth="yes"/>
			<point x="434" y="461"/>
			<point x="367" y="448"/>
			<point x="298" y="413" type="curve"/>
			<point x="321" y="288" type="line"/>
			<point x="386" y="308"/>
			<point x="421" y="313"/>
			<point x="466" y="313" type="curve" smooth="yes"/>
			<point x="558" y="313"/>
			<point x="598" y="281"/>
			<point x="598" y="201" type="curve" smooth="yes"/>
		</contour>
		<contour>
			<point x="172" y="0" type="line"/>
			<point x="344" y="0" type="line"/>
			<point x="344" y="715" type="line"/>
			<point x="172" y="715" type="line"/>
		</contour>
		<contour>
			<point x="25" y="570" type="line"/>
			<point x="616" y="570" type="line"/>
			<point x="616" y="715" type="line"/>
			<point x="25" y="715" type="line"/>
		</contour>
	</outline>
</glyph>
<glyph name="De" format="2">
	<unicode hex="0414"/>
	<advance width="851"/>
	<outline>
		<contour>
			<point x="57" y="80" type="line"/>
			<point x="140" y="80" type="line" smooth="yes"/>
			<point x="254" y="80"/>
			<point x="319" y="148"/>
			<point x="337" y="290" type="curve" smooth="yes"/>
			<point x="389" y="693" type="line"/>
			<point x="245" y="571" type="line"/>
			<point x="633" y="571" type="line"/>
			<point x="553" y="693" type="line"/>
			<point x="553" y="105" type="line"/>
			<point x="723" y="105" type="line"/>
			<point x="723" y="715" type="line"/>
			<point x="226" y="715" type="line"/>
			<point x="176" y="309" type="line" smooth="yes"/>
			<point x="161" y="191"/>
			<point x="140" y="144"/>
			<point x="103" y="144" type="curve" smooth="yes"/>
			<point x="57" y="144" type="line"/>
		</contour>
		<contour>
			<point x="32" y="-174" type="line"/>
			<point x="192" y="-174" type="line"/>
			<point x="192" y="64" type="line"/>
			<point x="117" y="0" type="line"/>
			<point x="746" y="0" type="line"/>
			<point x="656" y="82" type="line"/>
			<point x="656" y="-174" type="line"/>
			<point x="816" y="-174" type="line"/>
			<point x="816" y="144" type="line"/>
			<point x="32" y="144" type="line"/>
		</contour>
	</outline>
</glyph>
<glyph name="Zhe" format="2">
	<unicode hex="0416"/>
	<advance width="1140"/>
	<outline>
		<contour>
			<point x="924" y="0" type="line"/>
			<point x="1130" y="0" type="line"/>
			<point x="842" y="372" type="line"/>
			<point x="1115" y="715" type="line"/>
			<point x="919" y="715" type="line"/>
			<point x="648" y="371" type="line"/>
			<point x="632" y="371" type="line"/>
		</contour>
		<contour>
			<point x="10" y="0" type="line"/>
			<point x="216" y="0" type="line"/>
			<point x="508" y="371" type="line"/>
			<point x="492" y="371" type="line"/>
			<point x="221" y="715" type="line"/>
			<point x="25" y="715" type="line"/>
			<point x="298" y="372" type="line"/>
		</contour>
		<contour>
			<point x="484" y="0" type="line"/>
			<point x="656" y="0" type="line"/>
			<point x="656" y="715" type="line"/>
			<point x="484" y="715" type="line"/>
		</contour>
	</outline>
</glyph>
<glyph name="Ze" format="2">
	<unicode hex="0417"/>
	<advance width="672"/>
	<outline>
		<contour>
			<point x="321" y="-16" type="curve" smooth="yes"/>
			<point x="505" y="-16"/>
			<point x="640" y="77"/>
			<point x="640" y="210" type="curve" smooth="yes"/>
			<point x="640" y="290"/>
			<point x="590" y="352"/>
			<point x="510" y="379" type="curve"/>
			<point x="578" y="408"/>
			<point x="619" y="462"/>
			<point x="619" y="530" type="curve" smooth="yes"/>
			<point x="619" y="647"/>
			<point x="496" y="732"/>
			<point x="328" y="732" type="curve" smooth="yes"/>
			<point x="206" y="732"/>
			<point x="106" y="687"/>
			<point x="31" y="597" type="curve"/>
			<point x="140" y="485" type="line"/>
			<point x="193" y="553"/>
			<point x="250" y="581"/>
			<point x="322" y="581" type="curve" smooth="yes"/>
			<point x="396" y="581"/>
			<point x="445" y="551"/>
			<point x="445" y="504" type="curve" smooth="yes"/>
			<point x="445" y="462"/>
			<point x="406" y="436"/>
			<point x="338" y="436" type="curve" smooth="yes"/>
			<point x="204" y="436" type="line"/>
			<point x="204" y="293" type="line"/>
			<point x="337" y="293" type="line" smooth="yes"/>
			<point x="421" y="293"/>
			<point x="466" y="268"/>
			<point x="466" y="221" type="curve" smooth="yes"/>
			<point x="466" y="169"/>
			<point x="413" y="134"/>
			<point x="327" y="134" type="curve" smooth="yes"/>
			<point x="247" y="134"/>
			<point x="173" y="166"/>
			<point x="120" y="226" type="curve"/>
			<point x="13" y="117" type="line"/>
			<point x="81" y="31"/>
			<point x="191" y="-16"/>
		</contour>
	</outline>
</glyph>
<glyph name="Tse" format="2">
	<unicode hex="0426"/>
	<advance width="834"/>
	<outline>
		<contour>
			<point x="80" y="0" type="line"/>
			<point x="706" y="0" type="line"/>
			<point x="706" y="715" type="line"/>
			<point x="534" y="715" type="line"/>
			<point x="534" y="42" type="line"/>
			<point x="616" y="144" type="line"/>
			<point x="160" y="144" type="line"/>
			<point x="252" y="42" type="line"/>
			<point x="252" y="715" type="line"/>
			<point x="80" y="715" type="line"/>
		</contour>
		<contour>
			<point x="639" y="-174" type="line"/>
			<point x="799" y="-174" type="line"/>
			<point x="799" y="144" type="line"/>
			<point x="639" y="144" type="line"/>
		</contour>
	</outline>
</glyph>
<glyph name="de" format="2">
	<unicode hex="0434"/>
	<advance width="692"/>
	<outline>
		<contour>
			<point x="56" y="88" type="line"/>
			<point x="122" y="88" type="line" smooth="yes"/>
			<point x="242" y="88"/>
			<point x="281" y="117"/>
			<point x="291" y="216" type="curve" smooth="yes"/>
			<point x="319" y="488" type="line"/>
			<point x="191" y="376" type="line"/>
			<point x="535" y="376" type="line"/>
			<point x="418" y="488" type="line"/>
			<point x="418" y="110" type="line"/>
			<point x="582" y="110" type="line"/>
			<point x="582" y="510" type="line"/>
			<point x="160" y="510" type="line"/>
			<point x="133" y="229" type="line" smooth="yes"/>
			<point x="125" y="147"/>
			<point x="110" y="134"/>
			<point x="66" y="134" type="curve" smooth="yes"/>
			<point x="56" y="134" type="line"/>
		</contour>
		<contour>
			<point x="25" y="-143" type="line"/>
			<point x="184" y="-143" type="line"/>
			<point x="184" y="82" type="line"/>
			<point x="128" y="0" type="line"/>
			<point x="594" y="0" type="line"/>
			<point x="513" y="82" type="line"/>
			<point x="513" y="-143" type="line"/>
			<point x="672" y="-143" type="line"/>
			<point x="672" y="134" type="line"/>
			<point x="25" y="134" type="line"/>
		</contour>
	</outline>
</glyph>
<glyph name="ze" format="2">
	<unicode hex="0437"/>
	<advance width="518"/>
	<outline>
		<contour>
			<point x="240" y="-15" type="curve" smooth="yes"/>
			<point x="387" y="-15"/>
			<point x="490" y="57"/>
			<point x="490" y="156" type="curve" smooth="yes"/>
			<point x="490" y="214"/>
			<point x="454" y="256"/>
			<point x="391" y="274" type="curve"/>
			<point x="391" y="265" type="line"/>
			<point x="446" y="283"/>
			<point x="476" y="322"/>
			<point x="476" y="374" type="curve" smooth="yes"/>
			<point x="476" y="461"/>
			<point x="376" y="526"/>
			<point x="243" y="526" type="curve" smooth="yes"/>
			<point x="155" y="526"/>
			<point x="80" y="497"/>
			<point x="20" y="440" type="curve"/>
			<point x="100" y="339" type="line"/>
			<point x="141" y="378"/>
			<point x="184" y="396"/>
			<point x="236" y="396" type="curve" smooth="yes"/>
			<point x="286" y="396"/>
			<point x="315" y="380"/>
			<point x="315" y="352" type="curve" smooth="yes"/>
			<point x="315" y="322"/>
			<point x="292" y="308"/>
			<point x="245" y="308" type="curve" smooth="yes"/>
			<point x="150" y="308" type="line"/>
			<point x="150" y="206" type="line"/>
			<point x="247" y="206" type="line" smooth="yes"/>
			<point x="303" y="206"/>
			<point x="328" y="193"/>
			<point x="328" y="164" type="curve" smooth="yes"/>
			<point x="328" y="130"/>
			<point x="298" y="114"/>
			<point x="236" y="114" type="curve" smooth="yes"/>
			<point x="175" y="114"/>
			<point x="126" y="134"/>
			<point x="85" y="175" type="curve"/>
			<point x="2" y="76" type="line"/>
			<point x="63" y="15"/>
			<point x="152" y="-15"/>
		</contour>
	</outline>
</glyph>
<glyph name="ka" format="2">
	<unicode hex="043A"/>
	<advance width="621"/>
	<outline>
		<contour>
			<point x="408" y="0" type="line"/>
			<point x="611" y="0" type="line"/>
			<point x="350" y="319" type="line"/>
			<point x="346" y="199" type="line"/>
			<point x="593" y="510" type="line"/>
			<point x="399" y="510" type="line"/>
			<point x="210" y="266" type="line"/>
			<point x="199" y="266" type="line"/>
		</contour>
		<contour>
			<point x="62" y="0" type="line"/>
			<point x="231" y="0" type="line"/>
			<point x="231" y="510" type="line"/>
			<point x="62" y="510" type="line"/>
		</contour>
	</outline>
	<anchor name="top.LC" x="313" y="544"/>
</glyph>
<glyph name="el" format="2">
	<unicode hex="043B"/>
	<advance width="620"/>
	<outline>
		<contour>
			<point x="17" y="0" type="line"/>
			<point x="80" y="0" type="line" smooth="yes"/>
			<point x="193" y="0"/>
			<point x="243" y="33"/>
			<point x="254" y="143" type="curve" smooth="yes"/>
			<point x="290" y="488" type="line"/>
			<point x="162" y="376" type="line"/>
			<point x="511" y="376" type="line"/>
			<point x="389" y="488" type="line"/>
			<point x="389" y="0" type="line"/>
			<point x="558" y="0" type="line"/>
			<point x="558" y="510" type="line"/>
			<point x="134" y="510" type="line"/>
			<point x="101" y="179" type="line" smooth="yes"/>
			<point x="98" y="149"/>
			<point x="84" y="136"/>
			<point x="47" y="136" type="curve" smooth="yes"/>
			<point x="17" y="136" type="line"/>
		</contour>
	</outline>
</glyph>
<glyph name="te" format="2">
	<unicode hex="0442"/>
	<advance width="535"/>
	<outline>
		<contour>
			<point x="183" y="0" type="line"/>
			<point x="352" y="0" type="line"/>
			<point x="352" y="449" type="line"/>
			<point x="183" y="449" type="line"/>
		</contour>
		<contour>
			<point x="21" y="376" type="line"/>
			<point x="514" y="376" type="line"/>
			<point x="514" y="510" type="line"/>
			<point x="21" y="510" type="line"/>
		</contour>
	</outline>
</glyph>
<glyph name="che" format="2">
	<unicode hex="0447"/>
	<advance width="611"/>
	<outline>
		<contour>
			<point x="238" y="141" type="curve" smooth="yes"/>
			<point x="298" y="141"/>
			<point x="372" y="162"/>
			<point x="404" y="187" type="curve"/>
			<point x="386" y="303" type="line"/>
			<point x="362" y="288"/>
			<point x="330" y="279"/>
			<point x="297" y="279" type="curve" smooth="yes"/>
			<point x="236" y="279"/>
			<point x="204" y="311"/>
			<point x="204" y="372" type="curve" smooth="yes"/>
			<point x="204" y="510" type="line"/>
			<point x="35" y="510" type="line"/>
			<point x="35" y="355" type="line" smooth="yes"/>
			<point x="35" y="219"/>
			<point x="109" y="141"/>
		</contour>
		<contour>
			<point x="380" y="0" type="line"/>
			<point x="549" y="0" type="line"/>
			<point x="549" y="510" type="line"/>
			<point x="380" y="510" type="line"/>
		</contour>
	</outline>
</glyph>
<glyph name="dje" format="2">
	<unicode hex="0452"/>
	<advance width="652"/>
	<outline>
		<contour>
			<point x="388" y="-210" type="line"/>
			<point x="531" y="-144"/>
			<point x="613" y="6"/>
			<point x="613" y="205" type="curve" smooth="yes"/>
			<point x="613" y="388"/>
			<point x="545" y="486"/>
			<point x="417" y="486" type="curve" smooth="yes"/>
			<point x="316" y="486"/>
			<point x="251" y="420"/>
			<point x="241" y="309" type="curve"/>
			<point x="261" y="309" type="line"/>
			<point x="261" y="720" type="line"/>
			<point x="92" y="720" type="line"/>
			<point x="92" y="0" type="line"/>
			<point x="261" y="0" type="line"/>
			<point x="261" y="219" type="line" smooth="yes"/>
			<point x="261" y="298"/>
			<point x="299" y="348"/>
			<point x="359" y="348" type="curve" smooth="yes"/>
			<point x="415" y="348"/>
			<point x="444" y="296"/>
			<point x="444" y="188" type="curve" smooth="yes"/>
			<point x="444" y="52"/>
			<point x="398" y="-36"/>
			<point x="303" y="-80" type="curve"/>
		</contour>
		<contour>
			<point x="11" y="539" type="line"/>
			<point x="439" y="539" type="line"/>
			<point x="439" y="653" type="line"/>
			<point x="11" y="653" type="line"/>
		</contour>
	</outline>
</glyph>
<glyph name="nje" format="2">
	<unicode hex="045A"/>
	<advance width="893"/>
	<outline>
		<contour>
			<point x="403" y="0" type="line"/>
			<point x="664" y="0" type="line" smooth="yes"/>
			<point x="796" y="0"/>
			<point x="879" y="70"/>
			<point x="879" y="178" type="curve" smooth="yes"/>
			<point x="879" y="284"/>
			<point x="797" y="357"/>
			<point x="664" y="357" type="curve" smooth="yes"/>
			<point x="537" y="357" type="line"/>
			<point x="537" y="226" type="line"/>
			<point x="643" y="226" type="line" smooth="yes"/>
			<point x="686" y="226"/>
			<point x="708" y="208"/>
			<point x="708" y="178" type="curve" smooth="yes"/>
			<point x="708" y="148"/>
			<point x="686" y="130"/>
			<point x="643" y="130" type="curve" smooth="yes"/>
			<point x="560" y="130" type="line"/>
			<point x="572" y="118" type="line"/>
			<point x="572" y="510" type="line"/>
			<point x="403" y="510" type="line"/>
		</contour>
		<contour>
			<point x="62" y="0" type="line"/>
			<point x="231" y="0" type="line"/>
			<point x="231" y="510" type="line"/>
			<point x="62" y="510" type="line"/>
		</contour>
		<contour>
			<point x="176" y="211" type="line"/>
			<point x="458" y="211" type="line"/>
			<point x="458" y="342" type="line"/>
			<point x="176" y="342" type="line"/>
		</contour>
	</outline>
</glyph>
<glyph name="dzhe" format="2">
	<unicode hex="045F"/>
	<advance width="608"/>
	<outline>
		<contour>
			<point x="51" y="0" type="line"/>
			<point x="546" y="0" type="line"/>
			<point x="546" y="510" type="line"/>
			<point x="377" y="510" type="line"/>
			<point x="377" y="134" type="line"/>
			<point x="220" y="134" type="line"/>
			<point x="220" y="510" type="line"/>
			<point x="51" y="510" type="line"/>
		</contour>
		<contour>
			<point x="219" y="-143" type="line"/>
			<point x="378" y="-143" type="line"/>
			<point x="378" y="114" type="line"/>
			<point x="219" y="114" type="line"/>
		</contour>
	</outline>
</glyph>
<glyph name="fita" format="2">
	<unicode hex="0473"/>
	<advance width="650"/>
	<outline>
		<contour>
			<point x="325" y="-16" type="curve" smooth="yes"/>
			<point x="497" y="-16"/>
			<point x="615" y="96"/>
			<point x="615" y="255" type="curve" smooth="yes"/>
			<point x="615" y="414"/>
			<point x="497" y="526"/>
			<point x="325" y="526" type="curve" smooth="yes"/>
			<point x="153" y="526"/>
			<point x="35" y="414"/>
			<point x="35" y="255" type="curve" smooth="yes"/>
			<point x="35" y="96"/>
			<point x="153" y="-16"/>
		</contour>
		<contour>
			<point x="325" y="110" type="curve" smooth="yes"/>
			<point x="247" y="110"/>
			<point x="201" y="164"/>
			<point x="201" y="255" type="curve" smooth="yes"/>
			<point x="201" y="346"/>
			<point x="247" y="400"/>
			<point x="325" y="400" type="curve" smooth="yes"/>
			<point x="403" y="400"/>
			<point x="449" y="346"/>
			<point x="449" y="255" type="curve" smooth="yes"/>
			<point x="449" y="164"/>
			<point x="403" y="110"/>
		</contour>
		<contour>
			<point x="133" y="206" type="line"/>
			<point x="517" y="206" type="line"/>
			<point x="517" y="304" type="line"/>
			<point x="133" y="304" type="line"/>
		</contour>
	</outline>
</glyph>
<glyph name="Gheup" format="2">
	<unicode hex="0490"/>
	<advance width="597"/>
	<outline>
		<contour>
			<point x="80" y="0" type="line"/>
			<point x="252" y="0" type="line"/>
			<point x="252" y="673" type="line"/>
			<point x="160" y="570" type="line"/>
			<point x="572" y="570" type="line"/>
			<point x="572" y="879" type="line"/>
			<point x="412" y="879" type="line"/>
			<point x="412" y="640" type="line"/>
			<point x="505" y="715" type="line"/>
			<point x="80" y="715" type="line"/>
		</contour>
	</outline>
</glyph>
<glyph name="guilsinglleft" format="2">
	<unicode hex="2039"/>
	<advance width="395"/>
	<outline>
		<contour>
			<point x="180" y="32" type="line"/>
			<point x="364" y="32" type="line"/>
			<point x="206" y="255" type="line"/>
			<point x="364" y="478" type="line"/>
			<point x="180" y="478" type="line"/>
			<point x="29" y="255" type="line"/>
		</contour>
	</outline>
	<guideline x="97"/>
</glyph>
<glyph name="dong" format="2">
	<unicode hex="20AB"/>
	<advance width="647"/>
	<outline>
		<contour>
			<point x="267" y="168" type="curve" smooth="yes"/>
			<point x="366" y="168"/>
			<point x="417" y="238"/>
			<point x="419" y="323" type="curve"/>
			<point x="386" y="335" type="line"/>
			<point x="379" y="306"/>
			<point x="349" y="285"/>
			<point x="309" y="285" type="curve" smooth="yes"/>
			<point x="263" y="285"/>
			<point x="230" y="314"/>
			<point x="230" y="356" type="curve" smooth="yes"/>
			<point x="230" y="397"/>
			<point x="259" y="424"/>
			<point x="303" y="424" type="curve" smooth="yes"/>
			<point x="350" y="424"/>
			<point x="383" y="395"/>
			<point x="383" y="364" type="curve" smooth="yes"/>
			<point x="383" y="267" type="line"/>
			<point x="384" y="257" type="line"/>
			<point x="384" y="180" type="line"/>
			<point x="527" y="180" type="line"/>
			<point x="527" y="715" type="line"/>
			<point x="383" y="715" type="line"/>
			<point x="383" y="407" type="line"/>
			<point x="417" y="407" type="line"/>
			<point x="410" y="484"/>
			<point x="359" y="542"/>
			<point x="268" y="542" type="curve" smooth="yes"/>
			<point x="172" y="542"/>
			<point x="82" y="469"/>
			<point x="82" y="356" type="curve" smooth="yes"/>
			<point x="82" y="243"/>
			<point x="170" y="168"/>
		</contour>
		<contour>
			<point x="115" y="0" type="line"/>
			<point x="527" y="0" type="line"/>
			<point x="527" y="116" type="line"/>
			<point x="115" y="116" type="line"/>
		</contour>
		<contour>
			<point x="286" y="584" type="line"/>
			<point x="580" y="584" type="line"/>
			<point x="580" y="670" type="line"/>
			<point x="286" y="670" type="line"/>
		</contour>
	</outline>
</glyph>
<glyph name="minus" format="2">
	<unicode hex="2212"/>
	<advance width="660"/>
	<outline>
		<contour>
			<point x="576" y="291" type="line"/>
			<point x="576" y="425" type="line"/>
			<point x="84" y="425" type="line"/>
			<point x="84" y="291" type="line"/>
		</contour>
	</outline>
	<guideline y="357"/>
</glyph>
<glyph name="triangledown" format="2">
	<unicode hex="25BC"/>
	<advance width="752"/>
	<outline>
		<contour>
			<point x="100" y="322" type="line"/>
			<point x="376" y="66" type="line"/>
			<point x="652" y="322" type="line"/>
			<point x="652" y="424" type="line"/>
			<point x="376" y="172" type="line"/>
			<point x="100" y="424" type="line"/>
		</contour>
	</outline>
	<guideline y="246"/>
	<guideline x="0" y="-158" angle="138.17"/>
</glyph>
<glyph name="be.loclMKDSRB" format="2">
	<advance width="650"/>
	<outline>
		<contour>
			<point x="326" y="-16" type="curve" smooth="yes"/>
			<point x="501" y="-16"/>
			<point x="610" y="81"/>
			<point x="610" y="237" type="curve" smooth="yes"/>
			<point x="610" y="342"/>
			<point x="554" y="417"/>
			<point x="438" y="470" type="curve" smooth="yes"/>
			<point x="301" y="533" type="line" smooth="yes"/>
			<point x="279" y="543"/>
			<point x="273" y="548"/>
			<point x="273" y="555" type="curve" smooth="yes"/>
			<point x="273" y="566"/>
			<point x="281" y="570"/>
			<point x="301" y="571" type="curve" smooth="yes"/>
			<point x="558" y="586" type="line"/>
			<point x="550" y="721" type="line"/>
			<point x="281" y="707" type="line" smooth="yes"/>
			<point x="155" y="700"/>
			<point x="97" y="655"/>
			<point x="97" y="564" type="curve" smooth="yes"/>
			<point x="97" y="497"/>
			<point x="139" y="451"/>
			<point x="244" y="402" type="curve" smooth="yes"/>
			<point x="348" y="354" type="line" smooth="yes"/>
			<point x="406" y="327"/>
			<point x="437" y="285"/>
			<point x="437" y="233" type="curve" smooth="yes"/>
			<point x="437" y="167"/>
			<point x="394" y="122"/>
			<point x="329" y="122" type="curve" smooth="yes"/>
			<point x="259" y="122"/>
			<point x="214" y="163"/>
			<point x="214" y="227" type="curve" smooth="yes"/>
			<point x="214" y="293"/>
			<point x="269" y="353"/>
			<point x="354" y="380" type="curve"/>
			<point x="281" y="458" type="line"/>
			<point x="125" y="430"/>
			<point x="40" y="344"/>
			<point x="40" y="216" type="curve" smooth="yes"/>
			<point x="40" y="72"/>
			<point x="149" y="-16"/>
		</contour>
	</outline>
</glyph>
<glyph name="brevecomb.cyrl" format="2">
	<outline>
		<contour>
			<point x="0" y="590" type="curve" smooth="yes"/>
			<point x="102" y="590"/>
			<point x="171" y="639"/>
			<point x="191" y="748" type="curve"/>
			<point x="64" y="748" type="line"/>
			<point x="57" y="698"/>
			<point x="36" y="680"/>
			<point x="0" y="680" type="curve" smooth="yes"/>
			<point x="-34" y="680"/>
			<point x="-56" y="698"/>
			<point x="-64" y="748" type="curve"/>
			<point x="-190" y="748" type="line"/>
			<point x="-170" y="639"/>
			<point x="-101" y="590"/>
		</contour>
	</outline>
	<anchor name="_top.LC" x="0" y="544"/>
</glyph>
<glyph name="circumflexcomb.narrow" format="2">
	<outline>
		<contour>
			<point x="187" y="587" type="line"/>
			<point x="63" y="761" type="line"/>
			<point x="-63" y="761" type="line"/>
			<point x="-187" y="587" type="line"/>
			<point x="-60" y="587" type="line"/>
			<point x="61" y="735" type="line"/>
			<point x="-64" y="735" type="line"/>
			<point x="57" y="587" type="line"/>
		</contour>
	</outline>
	<anchor name="_top.LC" x="0" y="544"/>
</glyph>
<glyph name="circumflexgravecomb.cap" format="2">
	<outline>
		<contour>
			<point x="225" y="799" type="line"/>
			<point x="97" y="936" type="line"/>
			<point x="-97" y="936" type="line"/>
			<point x="-225" y="799" type="line"/>
			<point x="-70" y="799" type="line"/>
			<point x="64" y="920" type="line"/>
			<point x="-66" y="920" type="line"/>
			<point x="69" y="799" type="line"/>
		</contour>
		<contour>
			<point x="229" y="882" type="line"/>
			<point x="337" y="882" type="line"/>
			<point x="231" y="1030" type="line"/>
			<point x="72" y="1030" type="line"/>
		</contour>
	</outline>
	<anchor name="_top.UC" x="0" y="750"/>
</glyph>
<glyph name="circumflexhookabovecomb.cap" format="2">
	<outline>
		<contour>
			<point x="-225" y="799" type="line"/>
			<point x="-70" y="799" type="line"/>
			<point x="64" y="920" type="line"/>
			<point x="-66" y="920" type="line"/>
			<point x="69" y="799" type="line"/>
			<point x="225" y="799" type="line"/>
			<point x="97" y="936" type="line"/>
			<point x="-97" y="936" type="line"/>
		</contour>
		<contour>
			<point x="210" y="867" type="line"/>
			<point x="290" y="896"/>
			<point x="333" y="941"/>
			<point x="333" y="993" type="curve" smooth="yes"/>
			<point x="333" y="1051"/>
			<point x="284" y="1092"/>
			<point x="217" y="1092" type="curve" smooth="yes"/>
			<point x="173" y="1092"/>
			<point x="135" y="1076"/>
			<point x="102" y="1044" type="curve"/>
			<point x="148" y="988" type="line"/>
			<point x="165" y="1001"/>
			<point x="180" y="1007"/>
			<point x="200" y="1007" type="curve" smooth="yes"/>
			<point x="221" y="1007"/>
			<point x="232" y="997"/>
			<point x="232" y="982" type="curve" smooth="yes"/>
			<point x="232" y="962"/>
			<point x="215" y="947"/>
			<point x="176" y="929" type="curve"/>
		</contour>
	</outline>
	<anchor name="_top.UC" x="0" y="750"/>
</glyph>
<glyph name="four.dnom" format="2">
	<advance width="432"/>
	<outline>
		<contour>
			<point x="352" y="0" type="line"/>
			<point x="352" y="67" type="line"/>
			<point x="405" y="67" type="line"/>
			<point x="405" y="154" type="line"/>
			<point x="352" y="154" type="line"/>
			<point x="352" y="408" type="line"/>
			<point x="234" y="408" type="line"/>
			<point x="25" y="154" type="line"/>
			<point x="25" y="67" type="line"/>
			<point x="234" y="67" type="line"/>
			<point x="234" y="0" type="line"/>
		</contour>
		<contour>
			<point x="234" y="283" type="line"/>
			<point x="234" y="154" type="line"/>
			<point x="131" y="154" type="line"/>
		</contour>
	</outline>
</glyph>
<glyph name="one.dnom" format="2">
	<advance width="365"/>
	<outline>
		<contour>
			<point x="194" y="411" type="line"/>
			<point x="61" y="344" type="line"/>
			<point x="61" y="237" type="line"/>
			<point x="167" y="297" type="line"/>
			<point x="167" y="0" type="line"/>
			<point x="290" y="0" type="line"/>
			<point x="290" y="411" type="line"/>
		</contour>
	</outline>
</glyph>
<glyph name="questiondown.case" format="2">
	<advance width="586"/>
	<outline>
		<contour>
			<point x="242" y="469" type="line"/>
			<point x="241" y="431"/>
			<point x="226" y="407"/>
			<point x="161" y="371" type="curve" smooth="yes"/>
			<point x="79" y="324"/>
			<point x="35" y="266"/>
			<point x="35" y="190" type="curve" smooth="yes"/>
			<point x="35" y="69"/>
			<point x="142" y="-26"/>
			<point x="287" y="-26" type="curve" smooth="yes"/>
			<point x="391" y="-26"/>
			<point x="491" y="23"/>
			<point x="562" y="108" type="curve"/>
			<point x="453" y="217" type="line"/>
			<point x="404" y="145"/>
			<point x="344" y="116"/>
			<point x="292" y="116" type="curve" smooth="yes"/>
			<point x="237" y="116"/>
			<point x="201" y="148"/>
			<point x="201" y="190" type="curve" smooth="yes"/>
			<point x="201" y="218"/>
			<point x="216" y="238"/>
			<point x="253" y="264" type="curve" smooth="yes"/>
			<point x="353" y="336"/>
			<point x="377" y="380"/>
			<point x="369" y="469" type="curve"/>
		</contour>
		<contour>
			<point x="203" y="619" type="curve" smooth="yes"/>
			<point x="203" y="564"/>
			<point x="247" y="522"/>
			<point x="303" y="522" type="curve" smooth="yes"/>
			<point x="359" y="522"/>
			<point x="403" y="564"/>
			<point x="403" y="619" type="curve" smooth="yes"/>
			<point x="403" y="673"/>
			<point x="359" y="715"/>
			<point x="303" y="715" type="curve" smooth="yes"/>
			<point x="247" y="715"/>
			<point x="203" y="673"/>
		</contour>
	</outline>
</glyph>
<glyph name="sha.loclBGR" format="2">
	<advance width="927"/>
	<outline>
		<contour>
			<point x="240" y="-16" type="curve" smooth="yes"/>
			<point x="347" y="-16"/>
			<point x="407" y="50"/>
			<point x="431" y="192" type="curve"/>
			<point x="376" y="208" type="line"/>
			<point x="367" y="157"/>
			<point x="330" y="122"/>
			<point x="283" y="122" type="curve" smooth="yes"/>
			<point x="239" y="122"/>
			<point x="215" y="152"/>
			<point x="215" y="206" type="curve" smooth="yes"/>
			<point x="215" y="510" type="line"/>
			<point x="46" y="510" type="line"/>
			<point x="46" y="189" type="line" smooth="yes"/>
			<point x="46" y="59"/>
			<point x="117" y="-16"/>
		</contour>
		<contour>
			<point x="551" y="-16" type="curve" smooth="yes"/>
			<point x="662" y="-16"/>
			<point x="729" y="62"/>
			<point x="729" y="192" type="curve"/>
			<point x="701" y="208" type="line"/>
			<point x="692" y="157"/>
			<point x="655" y="122"/>
			<point x="608" y="122" type="curve" smooth="yes"/>
			<point x="565" y="122"/>
			<point x="540" y="153"/>
			<point x="540" y="206" type="curve" smooth="yes"/>
			<point x="540" y="510" type="line"/>
			<point x="371" y="510" type="line"/>
			<point x="371" y="188" type="line" smooth="yes"/>
			<point x="371" y="59"/>
			<point x="437" y="-16"/>
		</contour>
		<contour>
			<point x="697" y="0" type="line"/>
			<point x="865" y="0" type="line"/>
			<point x="865" y="510" type="line"/>
			<point x="696" y="510" type="line"/>
			<point x="696" y="124" type="line"/>
			<point x="697" y="96" type="line"/>
		</contour>
	</outline>
</glyph>
<glyph name="two.dnom" format="2">
	<advance width="377"/>
	<outline>
		<contour>
			<point x="351" y="0" type="line"/>
			<point x="351" y="87" type="line"/>
			<point x="171" y="87" type="line"/>
			<point x="175" y="76" type="line"/>
			<point x="196" y="90"/>
			<point x="222" y="109"/>
			<point x="241" y="124" type="curve" smooth="yes"/>
			<point x="320" y="186"/>
			<point x="349" y="231"/>
			<point x="349" y="284" type="curve" smooth="yes"/>
			<point x="349" y="360"/>
			<point x="280" y="417"/>
			<point x="183" y="417" type="curve" smooth="yes"/>
			<point x="113" y="417"/>
			<point x="57" y="388"/>
			<point x="14" y="338" type="curve"/>
			<point x="84" y="267" type="line"/>
			<point x="116" y="311"/>
			<point x="150" y="324"/>
			<point x="175" y="324" type="curve" smooth="yes"/>
			<point x="206" y="324"/>
			<point x="229" y="306"/>
			<point x="229" y="278" type="curve" smooth="yes"/>
			<point x="229" y="259"/>
			<point x="220" y="246"/>
			<point x="191" y="221" type="curve" smooth="yes"/>
			<point x="28" y="84" type="line"/>
			<point x="28" y="0" type="line"/>
		</contour>
	</outline>
</glyph>
<glyph name="ve.loclBGR" format="2">
	<advance width="603"/>
	<outline>
		<contour>
			<point x="316" y="-16" type="curve" smooth="yes"/>
			<point x="478" y="-16"/>
			<point x="583" y="72"/>
			<point x="583" y="208" type="curve" smooth="yes"/>
			<point x="583" y="294"/>
			<point x="522" y="363"/>
			<point x="433" y="377" type="curve"/>
			<point x="433" y="370" type="line"/>
			<point x="504" y="385"/>
			<point x="556" y="455"/>
			<point x="556" y="534" type="curve" smooth="yes"/>
			<point x="556" y="657"/>
			<point x="458" y="737"/>
			<point x="306" y="737" type="curve" smooth="yes"/>
			<point x="151" y="737"/>
			<point x="43" y="636"/>
			<point x="43" y="492" type="curve" smooth="yes"/>
			<point x="43" y="224" type="line" smooth="yes"/>
			<point x="43" y="70"/>
			<point x="145" y="-16"/>
		</contour>
		<contour>
			<point x="312" y="123" type="curve" smooth="yes"/>
			<point x="243" y="123"/>
			<point x="202" y="165"/>
			<point x="202" y="244" type="curve" smooth="yes"/>
			<point x="202" y="490" type="line" smooth="yes"/>
			<point x="202" y="556"/>
			<point x="241" y="598"/>
			<point x="304" y="598" type="curve" smooth="yes"/>
			<point x="359" y="598"/>
			<point x="395" y="566"/>
			<point x="395" y="517" type="curve" smooth="yes"/>
			<point x="395" y="465"/>
			<point x="353" y="430"/>
			<point x="290" y="430" type="curve" smooth="yes"/>
			<point x="182" y="430" type="line"/>
			<point x="182" y="300" type="line"/>
			<point x="304" y="300" type="line" smooth="yes"/>
			<point x="372" y="300"/>
			<point x="414" y="266"/>
			<point x="414" y="212" type="curve" smooth="yes"/>
			<point x="414" y="158"/>
			<point x="375" y="123"/>
		</contour>
	</outline>
</glyph>
